<svg xmlns="http://www.w3.org/2000/svg" version="1.1" width="512" height="512" x="0" y="0"
    viewBox="0 0 96 96" style="enable-background:new 0 0 512 512" xml:space="preserve"
    fill-rule="evenodd" class=""><g>
    <path d="M24.193 38.65c-7.691-1.99-13.378-8.982-13.378-17.291 0-9.857 8.003-17.859 17.859-17.859 8.556 0 15.715 6.029 17.455 14.068a1.502 1.502 0 0 0 2.933-.635C47.029 7.544 38.668.5 28.674.5 17.162.5 7.815 9.847 7.815 21.359c0 9.705 6.643 17.871 15.626 20.196a1.5 1.5 0 0 0 .752-2.905z" fill="#000000" opacity="1" data-original="#000000"></path><path
    d="M9.315 22.859h19.359a1.5 1.5 0 0 0 0-3H9.315a1.5 1.5 0 0 0 0 3z" fill="#000000"
    opacity="1"></path>
    <path d="M30.174 21.327V2a1.5 1.5 0 0 0-3 0v19.327a1.5 1.5 0 0 0 3 0z"
    fill="#000000" opacity="1"></path><path
    d="m17.918 12.724 10.474 10.475a1.502 1.502 0 0 0 2.122 0 1.502 1.502 0 0 0 0-2.122L20.039 10.603a1.5 1.5 0 1 0-2.121 2.121z"
    fill="#000000" opacity="1"></path><path
    d="M41.235 6.612 13.927 33.92a1.501 1.501 0 0 0 2.122 2.121L43.357 8.733a1.501 1.501 0 0 0-2.122-2.121zM58.682 32.903l9.219-26.828a1.5 1.5 0 0 1 1.629-.998l16.944 2.401a1.5 1.5 0 0 0 .421-2.97L69.951 2.107A4.499 4.499 0 0 0 65.064 5.1l-9.219 26.828a1.5 1.5 0 0 0 2.837.975z"
    fill="#000000" opacity="1"></path><path
    d="M77.338 25.328a4.499 4.499 0 0 0-4.489-4.805H31.656a4.503 4.503 0 0 0-4.49 4.805l4.487 65.977a4.499 4.499 0 0 0 4.489 4.195h32.22a4.5 4.5 0 0 0 4.49-4.195zm-2.993-.204-4.486 65.978a1.5 1.5 0 0 1-1.497 1.398h-32.22a1.499 1.499 0 0 1-1.496-1.398L30.16 25.124a1.5 1.5 0 0 1 1.496-1.601h41.193a1.5 1.5 0 0 1 1.496 1.601z"
    fill="#000000" opacity="1"></path><path
    d="M35.078 37.848h-5.455a1.5 1.5 0 0 0 0 3h5.455a1.5 1.5 0 0 0 0-3zm39.804 0H41.051a1.5 1.5 0 0 0 0 3h33.831a1.501 1.501 0 0 0 0-3zM43.022 46.489A6.514 6.514 0 0 0 36.511 53c0 3.594 2.917 6.511 6.511 6.511s6.511-2.917 6.511-6.511a6.514 6.514 0 0 0-6.511-6.511zm0 3c1.938 0 3.511 1.573 3.511 3.511s-1.573 3.511-3.511 3.511-3.511-1.573-3.511-3.511 1.573-3.511 3.511-3.511zM57.264 60.978c-4.325 0-7.837 3.512-7.837 7.837s3.512 7.836 7.837 7.836S65.1 73.14 65.1 68.815s-3.511-7.837-7.836-7.837zm0 3c2.669 0 4.836 2.168 4.836 4.837s-2.167 4.836-4.836 4.836c-2.67 0-4.837-2.167-4.837-4.836s2.167-4.837 4.837-4.837zM33.041 80.576a9.134 9.134 0 0 1 4.305-1.071c5.071 0 9.187 4.117 9.187 9.187 0 1.66-.44 3.217-1.212 4.561a1.5 1.5 0 0 0 2.602 1.494 12.13 12.13 0 0 0 1.61-6.055c0-6.726-5.461-12.187-12.187-12.187a12.12 12.12 0 0 0-5.714 1.423 1.5 1.5 0 1 0 1.409 2.648z"
    fill="#000000" opacity="1"></path></g></svg>