<svg xmlns="http://www.w3.org/2000/svg" version="1.1" width="512" height="512" x="0" y="0"
    viewBox="0 0 512.076 512.076" style="enable-background:new 0 0 512 512" xml:space="preserve"
    class=""><g><path d="M115.837 99.869c30.03 0 56.226 16.417 70.103 40.765M36.905 197.051a81.006 81.006 0 0 1-1.7-16.55c0-33.399 20.306-62.055 49.246-74.296" style="stroke-width:15;stroke-linecap:round;stroke-linejoin:round;stroke-miterlimit:10;" fill="none" stroke="#000000" stroke-width="15" stroke-linecap="round" stroke-linejoin="round" stroke-miterlimit="10" data-original="#000000" class=""></path><path
    d="M115.837 112.057s-3.496-23.532 18.787-44.122"
    style="stroke-width:15;stroke-linecap:round;stroke-linejoin:round;stroke-miterlimit:10;"
    fill="none" stroke="#000000" stroke-width="15" stroke-linecap="round" stroke-linejoin="round"
    stroke-miterlimit="10" class=""></path><path
    d="M48.792 66.222c.677 5.111 3.071 14.994 11.507 24.456a46.018 46.018 0 0 0 25.239 14.464c17.813 3.576 30.1-3.993 30.1-3.993s.32-14.428-11.771-27.989a46.018 46.018 0 0 0-25.239-14.464c-12.427-2.496-22.165.434-26.917 2.434a4.835 4.835 0 0 0-2.919 5.092zM398.905 99.912c20.688.672 39.406 9.138 53.314 22.556M326.135 140.635c8.777-15.401 22.484-27.629 38.971-34.536M471.222 150.794c3.645 9.193 5.649 19.216 5.649 29.707 0 5.566-.564 11.001-1.638 16.25"
    style="stroke-width:15;stroke-linecap:round;stroke-linejoin:round;stroke-miterlimit:10;"
    fill="none" stroke="#000000" stroke-width="15" stroke-linecap="round" stroke-linejoin="round"
    stroke-miterlimit="10" class=""></path><path d="M396.238 112.057s-3.496-23.532 18.787-44.122"
    style="stroke-width:15;stroke-linecap:round;stroke-linejoin:round;stroke-miterlimit:10;"
    fill="none" stroke="#000000" stroke-width="15" stroke-linecap="round" stroke-linejoin="round"
    stroke-miterlimit="10" class=""></path><path
    d="M329.193 66.222c.677 5.111 3.071 14.994 11.507 24.456a46.018 46.018 0 0 0 25.239 14.464c17.813 3.576 30.1-3.993 30.1-3.993s.32-14.428-11.771-27.989a46.018 46.018 0 0 0-25.239-14.464c-12.427-2.495-22.165.435-26.918 2.435a4.834 4.834 0 0 0-2.918 5.091zM256.038 99.869c44.532 0 80.632 36.1 80.632 80.632 0 5.566-.564 11.001-1.638 16.25M177.106 197.051a81.006 81.006 0 0 1-1.7-16.55c0-33.399 20.306-62.055 49.246-74.296"
    style="stroke-width:15;stroke-linecap:round;stroke-linejoin:round;stroke-miterlimit:10;"
    fill="none" stroke="#000000" stroke-width="15" stroke-linecap="round" stroke-linejoin="round"
    stroke-miterlimit="10" class=""></path><path d="M256.038 112.057s-3.496-23.532 18.787-44.122"
    style="stroke-width:15;stroke-linecap:round;stroke-linejoin:round;stroke-miterlimit:10;"
    fill="none" stroke="#000000" stroke-width="15" stroke-linecap="round" stroke-linejoin="round"
    stroke-miterlimit="10" class=""></path><path
    d="M188.992 66.222c.677 5.111 3.071 14.994 11.507 24.456a46.018 46.018 0 0 0 25.239 14.464c17.813 3.576 30.1-3.993 30.1-3.993s.32-14.428-11.771-27.989a46.018 46.018 0 0 0-25.239-14.464c-12.427-2.495-22.165.435-26.918 2.435a4.834 4.834 0 0 0-2.918 5.091zM358.484 255.241H155.972M95.47 255.241H16.949a9.448 9.448 0 0 1-9.449-9.449V206.5a9.448 9.448 0 0 1 9.449-9.449h478.178a9.448 9.448 0 0 1 9.449 9.449v39.292a9.448 9.448 0 0 1-9.449 9.449h-76.389"
    style="stroke-width:15;stroke-linecap:round;stroke-linejoin:round;stroke-miterlimit:10;"
    fill="none" stroke="#000000" stroke-width="15" stroke-linecap="round" stroke-linejoin="round"
    stroke-miterlimit="10" class=""></path><path
    d="M94.877 296.595H35.583v-41.354H95.47M358.484 296.595H153.592M418.738 255.241h57.755v41.354h-59.75M153.592 255.241h204.892M95.333 354.79H16.949a9.448 9.448 0 0 1-9.449-9.449v-39.292a9.448 9.448 0 0 1 9.449-9.449h77.928M358.484 354.79H153.592M416.743 296.6h78.384a9.448 9.448 0 0 1 9.449 9.449v39.292a9.448 9.448 0 0 1-9.449 9.449h-78.384M153.592 296.6h204.892M155.972 396.15h202.512M416.743 396.15h78.384a9.448 9.448 0 0 1 9.449 9.449v39.292a9.448 9.448 0 0 1-9.449 9.449H16.949a9.448 9.448 0 0 1-9.449-9.449v-39.292a9.448 9.448 0 0 1 9.449-9.449h78.384"
    style="stroke-width:15;stroke-linecap:round;stroke-linejoin:round;stroke-miterlimit:10;"
    fill="none" stroke="#000000" stroke-width="15" stroke-linecap="round" stroke-linejoin="round"
    stroke-miterlimit="10" class=""></path><path
    d="M95.333 396.145h-59.75V354.79h59.75M358.484 396.145H155.972M420.517 354.79h55.976v41.355h-59.75M155.972 354.79h202.512M95.333 308.287V197.051h58.259v257.29H95.333v-111.27"
    style="stroke-width:15;stroke-linecap:round;stroke-linejoin:round;stroke-miterlimit:10;"
    fill="none" stroke="#000000" stroke-width="15" stroke-linecap="round" stroke-linejoin="round"
    stroke-miterlimit="10" class=""></path><path
    d="M358.484 197.051h58.259v257.29h-58.259zM124.462 255.477h0M124.462 395.915h0M387.613 255.477h0M387.613 395.915h0"
    style="stroke-width:15;stroke-linecap:round;stroke-linejoin:round;stroke-miterlimit:10;"
    fill="none" stroke="#000000" stroke-width="15" stroke-linecap="round" stroke-linejoin="round"
    stroke-miterlimit="10" class=""></path></g></svg>